<?xml version="1.0" standalone="no"?>
<!DOCTYPE svg PUBLIC "-//W3C//DTD SVG 20010904//EN"
 "http://www.w3.org/TR/2001/REC-SVG-20010904/DTD/svg10.dtd">
<svg version="1.0" xmlns="http://www.w3.org/2000/svg"
 width="50.000000pt" height="50.000000pt" viewBox="0 0 50.000000 50.000000"
 preserveAspectRatio="xMidYMid meet">

<g transform="translate(0.000000,50.000000) scale(0.100000,-0.100000)"
fill="#000000" stroke="none">
<path d="M172 468 c-7 -7 -12 -22 -12 -35 0 -21 -4 -23 -53 -23 -43 0 -58 -5
-75 -23 -21 -22 -22 -32 -22 -195 l0 -172 240 0 240 0 0 173 c0 168 -1 174
-23 195 -18 17 -36 22 -75 22 -48 0 -52 2 -52 23 0 37 -19 47 -90 47 -38 0
-71 -5 -78 -12z m146 -35 c3 -22 0 -23 -67 -23 -62 0 -71 2 -71 18 0 29 10 33
75 30 54 -3 60 -5 63 -25z m136 -59 c13 -13 16 -43 16 -175 l0 -159 -220 0
-220 0 0 159 c0 132 3 162 16 175 23 24 385 24 408 0z"/>
<path d="M200 320 c-24 -24 -27 -87 -5 -116 20 -26 19 -42 -5 -49 -26 -8 -50
-33 -50 -51 0 -11 21 -14 110 -14 89 0 110 3 110 14 0 18 -24 43 -50 51 -24 8
-25 24 -5 51 8 10 15 36 15 56 0 65 -76 102 -120 58z m78 -16 c26 -18 28 -56
7 -94 -23 -41 -18 -58 23 -77 l37 -17 -48 -4 c-26 -2 -68 -2 -95 0 l-47 4 38
17 c40 19 45 36 22 77 -20 35 -19 87 3 99 24 14 34 13 60 -5z"/>
</g>
</svg>
