<?xml version="1.0" standalone="no"?>
<!DOCTYPE svg PUBLIC "-//W3C//DTD SVG 20010904//EN"
 "http://www.w3.org/TR/2001/REC-SVG-20010904/DTD/svg10.dtd">
<svg version="1.0" xmlns="http://www.w3.org/2000/svg"
 width="512.000000pt" height="512.000000pt" viewBox="0 0 512.000000 512.000000"
 preserveAspectRatio="xMidYMid meet">

<g transform="translate(0.000000,512.000000) scale(0.100000,-0.100000)"
fill="#000000" stroke="none">
<path d="M1772 4617 c-22 -23 -22 -28 -22 -345 l0 -322 -679 0 c-735 0 -722 1
-795 -55 -18 -14 -46 -49 -62 -77 l-29 -53 0 -1550 0 -1550 22 -41 c27 -50 75
-97 122 -121 32 -16 72 -18 366 -21 182 -2 340 0 353 3 26 6 53 59 44 84 -3 9
-12 24 -20 34 -14 15 -43 17 -335 17 -263 0 -325 3 -351 15 -65 31 -61 -40
-64 1063 -2 811 0 1002 10 996 7 -5 156 -120 330 -256 175 -137 334 -260 354
-273 36 -24 42 -25 209 -25 l172 0 7 -65 c11 -104 52 -249 100 -350 196 -415
603 -675 1057 -675 451 0 859 261 1055 675 48 101 89 246 100 350 l7 65 172 0
c169 0 173 0 211 26 21 15 180 137 354 273 173 136 321 250 328 255 10 6 12
-186 10 -998 l-3 -1006 -33 -32 -32 -33 -1406 -5 c-1377 -5 -1406 -5 -1420
-24 -21 -29 -17 -70 9 -94 l24 -22 1409 2 c1361 3 1410 4 1447 22 49 24 92 67
120 120 l22 41 0 1550 0 1550 -29 53 c-16 28 -44 63 -62 77 -67 51 -95 55
-391 55 -160 0 -282 -4 -293 -10 -10 -5 -23 -24 -29 -42 -10 -28 -9 -36 7 -58
l19 -25 287 -5 288 -5 29 -33 29 -32 0 -430 0 -429 -378 -295 -377 -295 -157
-1 -158 0 0 38 c0 64 -36 216 -74 310 -182 456 -602 742 -1086 742 -501 0
-944 -318 -1106 -794 -27 -77 -54 -211 -54 -262 l0 -34 -157 0 -158 1 -378
295 -377 295 0 430 0 429 29 32 29 33 1736 5 c1525 4 1737 7 1750 20 26 27 24
72 -4 100 -19 19 -33 20 -260 20 l-240 0 0 323 0 324 -23 21 -23 22 -765 0
-766 0 -21 -23z m1458 -392 l0 -275 -65 0 -65 0 0 187 c0 178 -1 188 -22 210
l-21 23 -496 0 c-494 0 -495 0 -518 -22 -22 -21 -23 -26 -23 -210 l0 -188 -65
0 -65 0 0 275 0 275 670 0 670 0 0 -275z m-270 -135 l0 -140 -400 0 -400 0 0
140 0 140 400 0 400 0 0 -140z m-240 -864 c276 -45 529 -204 682 -429 57 -84
122 -227 150 -327 20 -74 23 -107 22 -260 0 -160 -3 -183 -28 -265 -15 -49
-42 -123 -61 -163 -36 -76 -121 -207 -155 -237 -20 -18 -20 -17 -20 72 0 161
-25 244 -97 324 -41 45 -102 78 -246 134 l-97 37 31 36 c163 185 112 505 -101
642 -256 164 -601 25 -669 -271 -29 -126 8 -280 89 -373 l31 -34 -108 -42
c-152 -60 -194 -83 -237 -131 -68 -74 -87 -132 -94 -282 l-7 -132 -53 65 c-65
81 -143 236 -179 355 -24 82 -27 106 -27 265 -1 153 2 186 22 260 28 100 93
243 150 327 217 320 618 492 1002 429z m-33 -534 c109 -56 168 -150 168 -267
-2 -314 -417 -413 -561 -133 -81 159 -2 349 173 414 54 20 167 13 220 -14z
m-202 -702 c61 -12 132 -8 208 11 40 11 50 8 202 -51 263 -103 265 -106 265
-378 l0 -188 -72 -42 c-260 -148 -530 -185 -800 -111 -83 23 -246 97 -295 135
l-33 25 0 185 c0 267 1 269 258 371 92 37 167 61 182 59 14 -2 52 -9 85 -16z"/>
<path d="M1340 593 c-25 -32 -20 -69 12 -95 17 -15 40 -18 134 -18 101 0 116
2 134 20 31 31 30 75 -2 103 -17 14 -40 17 -138 17 -117 0 -119 0 -140 -27z"/>
</g>
</svg>
